<svg fill="#000000" xmlns="http://www.w3.org/2000/svg"  viewBox="0 0 24 24" width="50px" height="50px"><path d="M7 9.7l15-2V4c0-1.2-1.1-2.1-2.3-2l-11 1.5c-1 .1-1.7 1-1.7 2V9.7zM9 18c0 1.7-1.6 3.4-3.5 3.9S2 21.4 2 19.7s1.6-3.4 3.5-3.9C7.4 15.4 9 16.3 9 18z"/><path fill="none" stroke="#000000" stroke-miterlimit="10" stroke-width="2" d="M8 18L8 6"/><path d="M22,17c0,1.7-1.6,3.4-3.5,3.9S15,20.4,15,18.7s1.6-3.4,3.5-3.9S22,15.3,22,17z"/><path fill="none" stroke="#000000" stroke-miterlimit="10" stroke-width="2" d="M21 17L21 4"/></svg>