<svg fill="#000000" xmlns="http://www.w3.org/2000/svg"  viewBox="0 0 24 24" width="50px" height="50px"><path fill="none" stroke="#000000" stroke-miterlimit="10" stroke-width="2" d="M12,9c-5,0-9,2.7-9,6c0,3.3,4,6,9,6s9-2.7,9-6C21,11.7,17,9,12,9L12,9z"/><path d="M9 12A1.5 1.5 0 1 0 9 15 1.5 1.5 0 1 0 9 12zM15 12A1.5 1.5 0 1 0 15 15 1.5 1.5 0 1 0 15 12zM12 17.7c-1.7 0-3.2-.5-4.1-1.2C8.4 17.8 10 19 12 19c2 0 3.6-1.2 4.1-2.6C15.2 17.2 13.7 17.7 12 17.7z"/><path fill="none" stroke="#000000" stroke-miterlimit="10" d="M18.7 10.2c1-.9 2.5-.9 3.3 0 .8.9.7 2.6-.5 3.5M2.5 13.7c-1.2-.8-1.3-2.5-.5-3.5.8-.9 2.3-.9 3.3 0"/><path d="M20,4c0.6,0,1,0.4,1,1s-0.4,1-1,1s-1-0.4-1-1S19.4,4,20,4 M20,3c-1.1,0-2,0.9-2,2s0.9,2,2,2s2-0.9,2-2S21.1,3,20,3L20,3z"/><path fill="none" stroke="#000000" stroke-miterlimit="10" stroke-width="2" d="M12,9V6c0-1.1,0.8-2,2-2s2.2,1,4.7,1"/></svg>