<svg fill="#000000" xmlns="http://www.w3.org/2000/svg"  viewBox="0 0 24 24" width="50px" height="50px"><path d="M20 16H4c-.732 0-1.409-.212-2-.556V18c0 1.105.895 2 2 2h16c1.105 0 2-.895 2-2v-2.556C21.409 15.788 20.732 16 20 16zM20 4H4C2.895 4 2 4.895 2 6v6c0 1.103.897 2 2 2h16c1.103 0 2-.897 2-2V6C22 4.895 21.105 4 20 4zM12 12c-.552 0-1-.448-1-1 0-.552.448-1 1-1s1 .448 1 1C13 11.552 12.552 12 12 12z"/><path fill="none" stroke="#000000" stroke-miterlimit="10" stroke-width="2" d="M9 4L15 4"/></svg>