<svg fill="#000000" xmlns="http://www.w3.org/2000/svg"  viewBox="0 0 24 24" width="50px" height="50px"><path d="M14.071,22H2.929C1.865,22,1,21.103,1,20V10c0-1.103,0.865-2,1.929-2h11.143C15.135,8,16,8.897,16,10v10	C16,21.103,15.135,22,14.071,22z M2.929,10L3,20h10.994L14,10H2.929z"/><path d="M14.071,9H2.929C2.416,9,2,9.448,2,10v10c0,0.552,0.416,1,0.929,1h11.143C14.584,21,15,20.552,15,20V10	C15,9.448,14.584,9,14.071,9z M8.508,17c-1.1,0-2-0.9-2-2c0-1.1,0.9-2,2-2s2,0.9,2,2C10.508,16.1,9.608,17,8.508,17z"/><path fill="none" stroke="#000000" stroke-miterlimit="10" stroke-width="2" d="M23,9c0,0,0-1.6,0-2c0-2.8-2.2-5-5-5s-5,2.2-5,5	c0,0.4,0,2,0,2"/></svg>